<?xml version="1.0" encoding="iso-8859-1"?>
<!-- Generator: Adobe Illustrator 16.0.0, SVG Export Plug-In . SVG Version: 6.00 Build 0)  -->
<!DOCTYPE svg PUBLIC "-//W3C//DTD SVG 1.1//EN" "http://www.w3.org/Graphics/SVG/1.1/DTD/svg11.dtd">
<svg xmlns="http://www.w3.org/2000/svg" xmlns:xlink="http://www.w3.org/1999/xlink" version="1.1" id="Capa_1" x="0px" y="0px" width="512px" height="512px" viewBox="0 0 124.601 124.601" style="enable-background:new 0 0 124.601 124.601;" xml:space="preserve">
<g>
	<g>
		<circle cx="33.942" cy="8.935" r="8.935" fill="#868e96"/>
		<path d="M39.885,20.046c-0.134-0.083-0.275-0.14-0.415-0.202c-1.009-0.67-2.143-1.172-3.303-1.455l-2.225,2.239l-2.158-2.265    c-0.009,0.003-0.017,0.003-0.023,0.004c-1.163,0.278-2.303,0.777-3.315,1.456c-0.154,0.066-0.31,0.132-0.457,0.223    c-3.681,2.257-12.146,10.741-11.744,15.684c0.24,2.947,3.55,8.479,5.502,11.511c0.664,1.029,1.779,1.591,2.92,1.591    c0.201,0,0.4-0.023,0.602-0.059c-0.006,0.086-0.014,0.173-0.014,0.26l0.003,33.219c0,2.265,1.836,4.099,4.1,4.099    c2.265,0,4.1-1.835,4.1-4.1l-0.004-28.509c0.162,0.008,0.324,0.021,0.488,0.021c0.031,0,0.063-0.004,0.095-0.005V82.25    c0,2.265,1.834,4.1,4.099,4.1s4.101-1.835,4.101-4.1l0.001-33.142c0.063-0.123,0.121-0.25,0.178-0.376    c0.263,0.062,0.527,0.099,0.793,0.099c1.139,0,2.256-0.562,2.918-1.591c1.953-3.033,5.264-8.563,5.503-11.511    C52.032,30.787,43.567,22.303,39.885,20.046z M24.796,38.771c-0.815-1.511-1.413-2.777-1.593-3.413    c0.208-0.604,0.79-1.557,1.593-2.639V38.771z M33.963,38.315h-0.042l-2.154-2.95l2.154-14.403h0.042l2.154,14.403L33.963,38.315z     M43.087,38.749v-6.017c0.791,1.069,1.369,2.01,1.579,2.614C44.475,36.01,43.886,37.264,43.087,38.749z" fill="#868e96"/>
		<circle cx="69.224" cy="29.515" r="7.449" fill="#868e96"/>
		<path d="M74.179,38.778c-0.112-0.069-0.229-0.115-0.346-0.168c-0.841-0.559-1.788-0.977-2.754-1.214l-1.855,1.868l-1.8-1.889    c-0.006,0.001-0.013,0.002-0.019,0.003c-0.97,0.231-1.921,0.648-2.765,1.215c-0.129,0.055-0.258,0.109-0.38,0.185    c-3.07,1.883-10.128,8.955-9.793,13.075c0.201,2.458,2.96,7.068,4.588,9.597c0.553,0.859,1.484,1.326,2.435,1.326    c0.167,0,0.335-0.02,0.501-0.048c-0.004,0.07-0.011,0.144-0.011,0.218l0.002,27.69c0,1.89,1.53,3.419,3.418,3.418    c1.887,0,3.416-1.53,3.416-3.418l-0.001-23.767c0.136,0.007,0.271,0.018,0.406,0.018c0.026,0,0.054-0.002,0.08-0.002    l-0.001,23.751c0,1.888,1.529,3.418,3.417,3.418h0.001c1.887,0,3.418-1.53,3.418-3.418l0.001-27.629    c0.054-0.103,0.102-0.209,0.147-0.313c0.219,0.053,0.439,0.082,0.66,0.082c0.95,0,1.882-0.467,2.436-1.326    c1.628-2.528,4.387-7.139,4.586-9.597C84.305,47.733,77.248,40.66,74.179,38.778z M61.6,54.39    c-0.68-1.262-1.179-2.317-1.328-2.848c0.173-0.504,0.659-1.298,1.328-2.199V54.39z M69.242,54.007h-0.033l-1.798-2.459    l1.798-12.007h0.033l1.797,12.007L69.242,54.007z M76.849,54.371v-5.016c0.66,0.891,1.142,1.675,1.315,2.177    C78.006,52.087,77.513,53.132,76.849,54.371z" fill="#868e96"/>
		<circle cx="98.808" cy="51.404" r="5.603" fill="#868e96"/>
		<path d="M102.533,58.368c-0.083-0.051-0.172-0.087-0.26-0.125c-0.631-0.422-1.343-0.734-2.069-0.912l-1.396,1.403l-1.354-1.421    c-0.006,0.002-0.01,0.002-0.014,0.004c-0.729,0.173-1.443,0.486-2.078,0.913c-0.098,0.041-0.193,0.082-0.287,0.138    c-2.309,1.416-7.615,6.734-7.362,9.833c0.149,1.85,2.226,5.313,3.448,7.216c0.416,0.647,1.117,0.998,1.831,0.998    c0.126,0,0.251-0.015,0.377-0.035c-0.005,0.053-0.008,0.106-0.008,0.163l0.001,20.824c0,1.42,1.151,2.572,2.57,2.569    c1.42,0,2.569-1.149,2.569-2.569l-0.001-17.873c0.103,0.006,0.202,0.013,0.306,0.013c0.021,0,0.041-0.002,0.06-0.002v17.862    c0,1.42,1.15,2.569,2.57,2.569s2.571-1.149,2.571-2.569l0.001-20.777c0.04-0.077,0.076-0.157,0.109-0.235    c0.165,0.039,0.331,0.062,0.497,0.062c0.714,0,1.416-0.352,1.83-0.998c1.226-1.901,3.298-5.366,3.451-7.215    C110.15,65.103,104.842,59.784,102.533,58.368z M93.074,70.109c-0.512-0.947-0.886-1.742-0.998-2.141    c0.131-0.38,0.496-0.977,0.998-1.654V70.109z M98.822,69.822h-0.025l-1.351-1.85l1.351-9.03h0.025l1.352,9.03L98.822,69.822z     M104.542,70.095v-3.772c0.496,0.672,0.858,1.262,0.99,1.639C105.412,68.378,105.043,69.162,104.542,70.095z" fill="#868e96"/>
		<path d="M47.891,109.453l-1.843-0.682c0.146-1.345,0.099-2.713-0.154-4.074l1.779-0.819c1.113-0.511,1.6-1.833,1.086-2.944    l-1.037-2.255c-0.514-1.11-1.832-1.599-2.942-1.088L43,98.412c-0.87-1.077-1.882-2.004-2.996-2.769l0.68-1.84    c0.424-1.147-0.163-2.427-1.311-2.851l-2.33-0.86c-1.112-0.409-2.439,0.203-2.85,1.313l-0.681,1.842    c-1.342-0.145-2.713-0.098-4.076,0.154l-0.817-1.777c-0.514-1.112-1.833-1.6-2.943-1.088l-2.255,1.037    c-1.112,0.514-1.599,1.834-1.087,2.944l0.819,1.78c-1.078,0.872-2.005,1.88-2.769,2.995l-1.838-0.679    c-1.109-0.414-2.44,0.199-2.852,1.312l-0.86,2.33c-0.204,0.558-0.183,1.158,0.066,1.696c0.25,0.537,0.693,0.947,1.247,1.15    l1.841,0.684c-0.146,1.341-0.099,2.713,0.156,4.072l-1.778,0.821c-1.113,0.511-1.6,1.831-1.089,2.94l1.04,2.257    c0.511,1.11,1.832,1.599,2.941,1.085l1.78-0.818c0.872,1.079,1.882,2.006,2.998,2.768l-0.681,1.842    c-0.207,0.555-0.185,1.156,0.066,1.695c0.245,0.537,0.689,0.949,1.243,1.153l2.332,0.859c0.555,0.206,1.156,0.182,1.694-0.063    c0.54-0.25,0.947-0.691,1.152-1.248l0.683-1.843c1.342,0.146,2.711,0.099,4.075-0.153l0.819,1.779    c0.51,1.108,1.833,1.6,2.942,1.085l2.256-1.038c1.111-0.514,1.599-1.832,1.085-2.943l-0.818-1.777    c1.077-0.872,2.003-1.883,2.767-2.998l1.841,0.682c0.557,0.207,1.16,0.183,1.697-0.065c0.537-0.248,0.947-0.691,1.151-1.246    l0.863-2.33C49.628,111.156,49.037,109.875,47.891,109.453z M35.69,115.248c-1.162,0.533-2.397,0.805-3.668,0.805    c-3.414,0-6.543-2.003-7.971-5.104c-2.022-4.396-0.096-9.615,4.297-11.638c1.162-0.536,2.396-0.808,3.666-0.808    c3.415,0,6.546,2.003,7.974,5.104C42.01,108.003,40.081,113.224,35.69,115.248z" fill="#868e96"/>
		<path d="M80.59,113.179l-1.35-0.496c0.107-0.983,0.069-1.985-0.113-2.981l1.303-0.599c0.812-0.375,1.169-1.342,0.794-2.155    l-0.759-1.648c-0.376-0.812-1.34-1.17-2.151-0.795l-1.304,0.602c-0.636-0.789-1.377-1.466-2.191-2.025l0.497-1.346    c0.312-0.839-0.12-1.774-0.96-2.086l-1.704-0.627c-0.812-0.3-1.783,0.148-2.084,0.961l-0.498,1.346    c-0.979-0.104-1.981-0.068-2.979,0.113l-0.603-1.302c-0.371-0.813-1.339-1.17-2.149-0.794l-1.65,0.76    c-0.813,0.374-1.169,1.34-0.797,2.151l0.602,1.303c-0.786,0.638-1.464,1.377-2.024,2.191l-1.344-0.496    c-0.813-0.302-1.786,0.146-2.087,0.96l-0.63,1.703c-0.148,0.406-0.131,0.849,0.05,1.238c0.184,0.395,0.505,0.694,0.911,0.845    l1.348,0.499c-0.105,0.979-0.071,1.982,0.114,2.979l-1.304,0.6c-0.812,0.373-1.167,1.34-0.794,2.15l0.762,1.652    c0.374,0.812,1.338,1.167,2.151,0.793l1.304-0.6c0.636,0.789,1.374,1.468,2.19,2.023l-0.497,1.348    c-0.152,0.405-0.135,0.847,0.047,1.238c0.18,0.395,0.504,0.696,0.91,0.846l1.705,0.629c0.405,0.15,0.846,0.135,1.241-0.047    c0.395-0.183,0.693-0.508,0.843-0.914l0.498-1.347c0.982,0.106,1.982,0.073,2.98-0.112l0.6,1.303    c0.373,0.812,1.34,1.168,2.15,0.793l1.65-0.76c0.812-0.373,1.168-1.34,0.796-2.15l-0.602-1.305    c0.787-0.637,1.466-1.375,2.024-2.188l1.348,0.498c0.405,0.149,0.847,0.132,1.24-0.051c0.395-0.181,0.691-0.507,0.843-0.909    l0.63-1.706C81.858,114.425,81.426,113.49,80.59,113.179z M71.664,117.418c-0.852,0.391-1.754,0.59-2.683,0.59    c-2.498,0-4.786-1.465-5.83-3.732c-1.48-3.214-0.069-7.033,3.145-8.514c0.849-0.393,1.752-0.589,2.68-0.589    c2.499,0,4.786,1.463,5.833,3.731C76.286,112.117,74.875,115.937,71.664,117.418z" fill="#868e96"/>
		<path d="M105.608,114.779l-0.992-0.365c0.08-0.727,0.054-1.463-0.085-2.195l0.961-0.441c0.601-0.274,0.859-0.988,0.583-1.586    l-0.557-1.216c-0.276-0.597-0.987-0.86-1.587-0.584l-0.958,0.441c-0.47-0.58-1.015-1.078-1.615-1.489l0.367-0.991    c0.229-0.62-0.088-1.308-0.707-1.536l-1.256-0.464c-0.599-0.22-1.313,0.11-1.533,0.707l-0.365,0.993    c-0.723-0.079-1.463-0.053-2.194,0.082l-0.44-0.958c-0.277-0.599-0.99-0.86-1.586-0.585l-1.216,0.559    c-0.6,0.275-0.861,0.987-0.585,1.586l0.439,0.959c-0.579,0.471-1.079,1.015-1.49,1.613l-0.99-0.367    c-0.601-0.223-1.313,0.106-1.536,0.707l-0.463,1.254c-0.111,0.301-0.098,0.627,0.036,0.916c0.133,0.289,0.373,0.51,0.671,0.619    l0.991,0.367c-0.077,0.723-0.052,1.461,0.086,2.194l-0.961,0.442c-0.601,0.273-0.86,0.986-0.583,1.582l0.558,1.217    c0.277,0.599,0.986,0.861,1.585,0.584l0.96-0.439c0.468,0.58,1.011,1.08,1.612,1.49l-0.366,0.99    c-0.111,0.301-0.098,0.623,0.035,0.916c0.134,0.289,0.373,0.51,0.673,0.619l1.255,0.465c0.3,0.108,0.621,0.097,0.914-0.037    c0.288-0.133,0.51-0.373,0.619-0.668l0.367-0.994c0.725,0.078,1.461,0.053,2.194-0.083l0.441,0.956    c0.272,0.601,0.986,0.861,1.586,0.586l1.214-0.559c0.598-0.277,0.861-0.986,0.585-1.586l-0.44-0.957    c0.582-0.472,1.077-1.015,1.488-1.615l0.994,0.367c0.298,0.111,0.622,0.096,0.912-0.037c0.29-0.131,0.512-0.371,0.621-0.668    l0.462-1.257C106.545,115.695,106.225,115.006,105.608,114.779z M99.036,117.902c-0.628,0.285-1.29,0.434-1.977,0.434    c-1.839,0-3.522-1.079-4.294-2.75c-1.09-2.367-0.05-5.18,2.313-6.268c0.629-0.289,1.29-0.436,1.976-0.436    c1.84,0,3.523,1.078,4.298,2.748C102.441,113.999,101.401,116.81,99.036,117.902z" fill="#868e96"/>
	</g>
</g>
<g>
</g>
<g>
</g>
<g>
</g>
<g>
</g>
<g>
</g>
<g>
</g>
<g>
</g>
<g>
</g>
<g>
</g>
<g>
</g>
<g>
</g>
<g>
</g>
<g>
</g>
<g>
</g>
<g>
</g>
</svg>
