<?xml version="1.0" encoding="iso-8859-1"?>
<!-- Generator: Adobe Illustrator 19.1.0, SVG Export Plug-In . SVG Version: 6.00 Build 0)  -->
<svg xmlns="http://www.w3.org/2000/svg" xmlns:xlink="http://www.w3.org/1999/xlink" version="1.1" id="Capa_1" x="0px" y="0px" viewBox="0 0 486.422 486.422" style="enable-background:new 0 0 486.422 486.422;" xml:space="preserve" width="512px" height="512px">
<g>
	<g>
		<path d="M192.9,245.211c1.3,0,2.6-0.4,3.8-1.1l46.7-30.3l46.7,30.3c1.2,0.8,2.5,1.1,3.8,1.1c2.3,0,4.5-1.1,5.9-3.2    c2.1-3.2,1.2-7.5-2.1-9.6l-47.3-30.7v-56.4c0-3.9-3.1-7-7-7s-7,3.1-7,7v56.4l-47.3,30.7c-3.2,2.1-4.2,6.4-2.1,9.6    C188.4,244.111,190.6,245.211,192.9,245.211z" fill="#868e96"/>
		<path d="M398.1,422.811c2.1-3.2,1.2-7.5-2.1-9.6l-47.3-30.7v-56.4c0-3.9-3.1-7-7-7s-7,3.1-7,7v56.4l-47.3,30.7    c-3.2,2.1-4.2,6.4-2.1,9.6c1.3,2.1,3.6,3.2,5.9,3.2c1.3,0,2.6-0.4,3.8-1.1l46.7-30.3l46.7,30.3c1.2,0.8,2.5,1.1,3.8,1.1    C394.6,426.011,396.8,424.811,398.1,422.811z" fill="#868e96"/>
		<path d="M241,101.611c-9-12.5,0.7-13.1,2.3-13.1l0,0l0,0c1.7,0,11.3,0.6,2.3,13.1l4.4,20.3h44.9v-14.6c0-3.1-1.4-6-3.7-8    c-13.2-10.8-27.4-18-30.3-19.4c-0.3-0.2-0.5-0.5-0.5-0.9v-20.4c2.6-1.7,4.3-4.6,4.3-8v-21.2c0-10.6-8.6-19.2-19.2-19.2h-2.1h-2.3    c-10.6,0-19.2,8.6-19.2,19.2v21.3c0,3.3,1.7,6.3,4.3,8v20.5c0,0.4-0.2,0.7-0.5,0.9c-2.9,1.4-17.1,8.6-30.3,19.4    c-2.4,2-3.7,4.9-3.7,8v14.6h44.9L241,101.611z" fill="#868e96"/>
		<path d="M201.4,422.811c2.1-3.2,1.2-7.5-2.1-9.6l-47.3-30.7v-56.4c0-3.9-3.1-7-7-7s-7,3.1-7,7v56.4l-47.3,30.7    c-3.2,2.1-4.2,6.4-2.1,9.6c1.3,2.1,3.6,3.2,5.9,3.2c1.3,0,2.6-0.4,3.8-1.1l46.7-30.3l46.7,30.3c1.2,0.8,2.5,1.1,3.8,1.1    C197.8,426.011,200.1,424.811,201.4,422.811z" fill="#868e96"/>
		<path d="M324.6,237.811v20.5c0,0.4-0.2,0.7-0.5,0.9c-2.9,1.4-17.1,8.6-30.3,19.4c-2.4,2-3.7,4.9-3.7,8v14.6H335l4.4-20.3    c-9-12.5,0.7-13.1,2.3-13.1l0,0l0,0c1.7,0,11.3,0.6,2.3,13.1l4.4,20.3h44.9v-14.6c0-3.1-1.4-6-3.7-8c-13.2-10.8-27.4-18-30.3-19.4    c-0.3-0.2-0.5-0.5-0.5-0.9v-20.5c2.6-1.7,4.3-4.6,4.3-8v-21.3c0-10.6-8.6-19.2-19.2-19.2h-2.3h-2.3c-10.6,0-19.2,8.6-19.2,19.2    v21.3C320.3,233.111,322,236.011,324.6,237.811z" fill="#868e96"/>
		<path d="M142.7,280.711c-9-12.5,0.7-13.1,2.3-13.1l0,0l0,0c1.7,0,11.3,0.6,2.3,13.1l4.4,20.3h44.9v-14.6c0-3.1-1.4-6-3.7-8    c-13.2-10.8-27.4-18-30.3-19.4c-0.3-0.2-0.5-0.5-0.5-0.9v-20.5c2.6-1.7,4.3-4.6,4.3-8v-21.3c0-10.6-8.6-19.2-19.2-19.2h-2.3h-2.3    c-10.6,0-19.2,8.6-19.2,19.2v21.3c0,3.3,1.7,6.3,4.3,8v20.5c0,0.4-0.2,0.7-0.5,0.9c-2.9,1.4-17.1,8.6-30.3,19.4    c-2.4,2-3.7,4.9-3.7,8v14.6h44.9L142.7,280.711z" fill="#868e96"/>
		<path d="M483.2,455.911c-11.8-9.7-24.6-16.2-27.2-17.5c-0.3-0.1-0.5-0.4-0.5-0.8v-18.4c2.3-1.5,3.8-4.2,3.8-7.2v-19.1    c0-9.5-7.7-17.2-17.2-17.2H440h-2.1c-9.5,0-17.2,7.7-17.2,17.2v19.1c0,3,1.5,5.6,3.8,7.2v18.4c0,0.3-0.2,0.6-0.5,0.8    c-2.6,1.3-15.4,7.7-27.2,17.5c-2.1,1.8-3.4,4.4-3.4,7.2v13.1h40.4l4-18.3c-8.1-11.2,0.6-11.8,2.1-11.8l0,0l0,0    c1.5,0,10.2,0.6,2.1,11.8l4,18.3h40.4v-13.1C486.6,460.311,485.4,457.711,483.2,455.911z" fill="#868e96"/>
		<path d="M286.5,455.911c-11.8-9.7-24.6-16.2-27.2-17.5c-0.3-0.1-0.5-0.4-0.5-0.8v-18.4c2.3-1.5,3.8-4.2,3.8-7.2v-19.1    c0-9.5-7.7-17.2-17.2-17.2h-2h-2.1c-9.5,0-17.2,7.7-17.2,17.2v19.1c0,3,1.5,5.6,3.8,7.2v18.4c0,0.3-0.2,0.6-0.5,0.8    c-2.6,1.3-15.4,7.7-27.2,17.5c-2.1,1.8-3.4,4.4-3.4,7.2v13.1h40.4l4-18.3c-8.1-11.2,0.6-11.8,2.1-11.8l0,0l0,0    c1.5,0,10.2,0.6,2.1,11.8l4,18.3h40.4v-13.1C289.9,460.311,288.6,457.711,286.5,455.911z" fill="#868e96"/>
		<path d="M89.8,455.911c-11.8-9.7-24.6-16.2-27.2-17.5c-0.3-0.1-0.5-0.4-0.5-0.8v-18.4c2.3-1.5,3.8-4.2,3.8-7.2v-19.1    c0-9.5-7.7-17.2-17.2-17.2h-2.1h-2.1c-9.5,0-17.2,7.7-17.2,17.2v19.1c0,3,1.5,5.6,3.8,7.2v18.4c0,0.3-0.2,0.6-0.5,0.8    c-2.6,1.3-15.4,7.7-27.2,17.5c-2.1,1.8-3.4,4.4-3.4,7.2v13.1h40.4l4-18.3c-8.1-11.2,0.6-11.8,2.1-11.8l0,0l0,0    c1.5,0,10.2,0.6,2.1,11.8l4,18.3H93v-13.1C93.1,460.311,91.9,457.711,89.8,455.911z" fill="#868e96"/>
	</g>
</g>
<g>
</g>
<g>
</g>
<g>
</g>
<g>
</g>
<g>
</g>
<g>
</g>
<g>
</g>
<g>
</g>
<g>
</g>
<g>
</g>
<g>
</g>
<g>
</g>
<g>
</g>
<g>
</g>
<g>
</g>
</svg>
