<?xml version="1.0" encoding="iso-8859-1"?>
<!-- Generator: Adobe Illustrator 16.0.0, SVG Export Plug-In . SVG Version: 6.00 Build 0)  -->
<!DOCTYPE svg PUBLIC "-//W3C//DTD SVG 1.1//EN" "http://www.w3.org/Graphics/SVG/1.1/DTD/svg11.dtd">
<svg xmlns="http://www.w3.org/2000/svg" xmlns:xlink="http://www.w3.org/1999/xlink" version="1.1" id="Capa_1" x="0px" y="0px" width="512px" height="512px" viewBox="0 0 578.477 578.477" style="enable-background:new 0 0 578.477 578.477;" xml:space="preserve">
<g>
	<path d="M542.638,237.119c13.8-23.601,25.1-62.4-6.7-73.4c-36.7-12.5-67.9,25.7-88.7,57.2c-14.1-34.3-38.6-52.6-78.9-58.4   c-33-4.6-67.3-2.8-100.699-0.3c-34.6,2.4-75.3,1.5-108,12.5c-2.8,0.9-4.6,3.101-5.2,5.2c-16.8,2.8-26.9,17.4-32.7,37   c-14.4-27.8-45.9-56-78.9-44.7c-34.3,11.9-15.3,53.5-0.3,76.2c-27.2,12.5-41.3,42.5-15.3,58.8c-19.6,17.1-39.8,46.5-17.4,67   c37.3,34.3,83.2-28.2,110.8-45.6c2.1,11.6,4.6,20.8,6.7,26.899c11.9,30.3,47.1,41,75.6,48.7c52,14.4,109.2,17.4,163.099,12.2   c33.7-3.4,66.101-11.3,83.5-42.2c1.2-2.4,2.8-4.9,3.7-7.3c21.7,26.3,54.2,67.6,88.4,41.6c20.199-15.3,14.1-45,1.199-65.8   C591.037,339.318,589.737,256.119,542.638,237.119z M94.038,258.519c5.2,3.7,13.5,8.9,21.1,10.7c0,4.9,0,9.8,0.3,14.7   c-8,0.3-17.7,4.6-22.6,6.399c-5.2,2.101-15.6,4.9-16.8,11.601c-0.6,3.1,3.7,5.2,5.2,2.1c-0.3,0.3-0.3,0.9,1.2,0   c1.2-0.6,2.8-0.899,4-1.5c4.3-1.5,8.6-3.1,13.2-4.3c4.3-1.2,8.9-2.1,13.2-2.8c1.2-0.3,2.4-0.3,3.4-0.3c0.6,6.699,1.2,13.5,2.1,19.6   c-0.9,0-1.8,0.3-2.8,0.9c-22.9,11.6-38.6,33.699-60.3,47.399c-20.8,13.2-48,0-36.1-24.2c5.5-11.3,15.9-20.199,26-26.899   c5.5-3.7,4.6-11.601-1.8-13.8c-15.3-14.101-16.2-24.8-2.4-32.101c4.9-3.399,10.4-5.5,15.9-6.399c4.6-1.2,8-7.601,4.6-11.601   c-10.7-14.399-40.4-60-4-62.399c24.8-1.8,44.4,23.6,57.8,40.399c0.9,1.2,2.1,1.801,3.4,1.5c-1.8,9.2-2.8,19-3.4,29.101   c-4-1.2-7.7-2.101-11-3.7c-4.6-2.1-16.2-7-18.1-12.5c-0.9-2.4-4.3-1.8-4.6,0.6C80.938,249.719,88.538,254.619,94.038,258.519z    M158.638,366.619c-34.9-22.301-41.9-172,8.6-175.601c1.5,0,2.8-0.899,3.7-1.8c0.6-0.3,1.5-0.3,2.1-0.6   c-34.3,48-13.8,142.899,15.6,193.1C177.938,377.619,167.838,372.719,158.638,366.619z M307.938,323.419   c2.1,12.899,4.899,25.399,8.899,37.899c0,0.301,0.301,0.601,0.301,0.9v0.3c-7-21.7-12.5-43.5-16.2-65.5   C302.737,306.019,305.138,314.818,307.938,323.419z M255.038,398.119c-39.5-66.4-41-141.101-23-213.601c0.3-1.5,0.3-3.1-0.6-4.3   c20.8-1.2,41.9-1.5,61.799-1.5c-17.1,25.4-13.799,67.3-9.799,94.8c6.1,43.101,16.5,90.3,39.799,127.9   C300.938,401.719,277.638,401.119,255.038,398.119z M322.938,380.019c0.899,2.101,2.1,4,3.399,6.101   c1.801,4.899,3.7,9.8,5.2,14.699c-0.3,0-0.6,0-0.899,0C328.138,394.119,325.337,387.119,322.938,380.019z M441.337,339.919   c-5.5,31.5-23.6,45.6-48.699,52.899c-33-69.8-23.9-137.399-19.601-211.1c24.8,5.5,45,18.4,57.2,47.7c1.5,3.7,3.1,7.6,4.3,11.3   c-0.3,1.2,0.3,2.4,0.9,3.4C445.638,275.119,446.837,309.019,441.337,339.919z M527.337,325.219c-7.3-2.4-13.199,7.7-7.3,12.9   c16.5,15,29.7,80.8-11.3,61.199c-19.9-9.5-34.6-31.8-50.2-46.8c2.4-8.3,3.7-16.8,4.601-25.399c8.899,5.5,15.899,11.899,21.699,20.8   c2.101,3.1,8,1.2,6.4-2.8c-4.6-12.2-16.5-20.2-27.8-25.7c0.6-12.2,0-24.5-1.5-36.7c18.7,3.101,39.2-5.5,45.899-23.899   c1.801-4.9-5.199-7-8-3.4c-10.399,14.4-21.1,20.5-39.199,19.9l0,0c-1.801-12.2-4.301-24.5-7.301-35.5   c-0.3-1.5-0.899-2.801-1.199-4.301c10.399-11,20.199-22.6,30.899-33.699c6.101-6.101,12.5-11.601,19.3-16.5   c13.801-11.301,26-4.301,36.7,21.399c-1.5,11.3-8.3,22-15.3,30.9c-2.8,3.7,0,10.399,4.6,11.3   C573.237,256.719,578.737,341.818,527.337,325.219z" fill="#ff457a"/>
</g>
<g>
</g>
<g>
</g>
<g>
</g>
<g>
</g>
<g>
</g>
<g>
</g>
<g>
</g>
<g>
</g>
<g>
</g>
<g>
</g>
<g>
</g>
<g>
</g>
<g>
</g>
<g>
</g>
<g>
</g>
</svg>
