<?xml version="1.0" encoding="iso-8859-1"?>
<!-- Generator: Adobe Illustrator 18.1.1, SVG Export Plug-In . SVG Version: 6.00 Build 0)  -->
<svg xmlns="http://www.w3.org/2000/svg" xmlns:xlink="http://www.w3.org/1999/xlink" version="1.1" id="Capa_1" x="0px" y="0px" viewBox="0 0 26.445 26.445" style="enable-background:new 0 0 26.445 26.445;" xml:space="preserve" width="512px" height="512px">
<g>
	<path d="M10.753,15.334h-0.01c-0.052,0.209-0.104,0.476-0.162,0.681l-0.21,0.751h0.781l-0.22-0.751   C10.87,15.806,10.807,15.543,10.753,15.334z" fill="#FFFFFF"/>
	<path d="M16.016,9.096c-0.25,0-0.426,0.018-0.518,0.043v1.664c0.108,0.025,0.234,0.034,0.427,0.034   c0.678,0,1.096-0.342,1.096-0.913C17.021,9.405,16.66,9.096,16.016,9.096z" fill="#FFFFFF"/>
	<path d="M7.814,15.317c-0.156,0-0.267,0.011-0.325,0.025v1.045c0.068,0.017,0.146,0.021,0.269,0.021   c0.425,0,0.688-0.215,0.688-0.572C8.445,15.512,8.22,15.317,7.814,15.317z" fill="#FFFFFF"/>
	<path d="M24.575,11.604l1.87-1.872l-1.87-1.869l1.493-1.493H2.776v0.352H2.361V6.37H0v13.705h25.563   l-0.988-0.988l1.87-1.87l-1.87-1.871l1.87-1.871C26.445,13.475,24.575,11.604,24.575,11.604z M2.776,19.477H2.361v-1.062h0.415   V19.477z M2.776,17.353H2.361v-1.064h0.415V17.353z M2.776,15.225H2.361v-1.062h0.415V15.225z M2.776,13.099H2.361v-1.062h0.415   C2.776,12.037,2.776,13.099,2.776,13.099z M2.776,10.973H2.361V9.911h0.415V10.973z M2.776,8.849H2.361V7.783h0.415V8.849z    M11.856,8.168h1.272v5.642h-1.272C11.856,13.81,11.856,8.168,11.856,8.168z M7.445,8.168l0.688,2.385   c0.191,0.677,0.368,1.313,0.501,2.015h0.025c0.144-0.677,0.319-1.346,0.511-1.991l0.721-2.409h1.355l-1.9,5.642H7.857L6.049,8.168   C6.049,8.168,7.445,8.168,7.445,8.168z M7.762,17.022c-0.104,0-0.198-0.005-0.272-0.021v1.271H6.697v-3.491   c0.247-0.042,0.594-0.072,1.082-0.072c0.493,0,0.845,0.093,1.08,0.282c0.231,0.18,0.378,0.473,0.378,0.818   c0,0.348-0.109,0.646-0.325,0.841C8.639,16.903,8.235,17.022,7.762,17.022z M11.541,18.272l-0.272-0.909h-1.013l-0.252,0.909H9.18   l1.076-3.537h1.05l1.102,3.537H11.541z M13.74,18.324c-0.404,0-0.803-0.11-1.003-0.22l0.162-0.656   c0.21,0.11,0.547,0.221,0.888,0.221c0.367,0,0.561-0.152,0.561-0.385c0-0.221-0.167-0.345-0.593-0.492   c-0.586-0.211-0.976-0.535-0.976-1.05c0-0.604,0.509-1.06,1.339-1.06c0.403,0,0.692,0.078,0.901,0.178l-0.178,0.641   c-0.138-0.067-0.394-0.167-0.735-0.167c-0.345,0-0.513,0.161-0.513,0.34c0,0.225,0.193,0.326,0.655,0.499   c0.625,0.231,0.914,0.557,0.914,1.056C15.163,17.82,14.711,18.324,13.74,18.324z M16.573,18.324c-0.403,0-0.803-0.11-1.002-0.22   l0.163-0.656c0.209,0.11,0.546,0.221,0.886,0.221c0.369,0,0.563-0.152,0.563-0.385c0-0.221-0.168-0.345-0.594-0.492   c-0.589-0.211-0.977-0.535-0.977-1.05c0-0.604,0.509-1.06,1.339-1.06c0.403,0,0.692,0.078,0.903,0.178l-0.18,0.641   c-0.136-0.067-0.393-0.167-0.734-0.167c-0.348,0-0.514,0.161-0.514,0.34c0,0.225,0.192,0.326,0.656,0.499   c0.624,0.231,0.911,0.557,0.911,1.056C17.995,17.82,17.545,18.324,16.573,18.324z M17.765,11.222   c-0.434,0.401-1.079,0.595-1.832,0.595c-0.167,0-0.318-0.009-0.435-0.034v2.027h-1.264V8.242c0.393-0.065,0.944-0.116,1.723-0.116   c0.787,0,1.349,0.15,1.727,0.451c0.366,0.286,0.601,0.753,0.601,1.306C18.284,10.434,18.108,10.912,17.765,11.222z" fill="#FFFFFF"/>
</g>
<g>
</g>
<g>
</g>
<g>
</g>
<g>
</g>
<g>
</g>
<g>
</g>
<g>
</g>
<g>
</g>
<g>
</g>
<g>
</g>
<g>
</g>
<g>
</g>
<g>
</g>
<g>
</g>
<g>
</g>
</svg>
